<?xml version="1.0" encoding="UTF-8" standalone="no"?>
<!-- Created with Inkscape (http://www.inkscape.org/) -->

<svg
   version="1.1"
   id="svg48"
   width="22.860415"
   height="22.58272"
   viewBox="0 0 22.860414 22.582719"
   sodipodi:docname="tumblr.png"
   xmlns:inkscape="http://www.inkscape.org/namespaces/inkscape"
   xmlns:sodipodi="http://sodipodi.sourceforge.net/DTD/sodipodi-0.dtd"
   xmlns="http://www.w3.org/2000/svg"
   xmlns:svg="http://www.w3.org/2000/svg">
  <defs
     id="defs52" />
  <sodipodi:namedview
     id="namedview50"
     pagecolor="#505050"
     bordercolor="#eeeeee"
     borderopacity="1"
     inkscape:showpageshadow="0"
     inkscape:pageopacity="0"
     inkscape:pagecheckerboard="0"
     inkscape:deskcolor="#505050"
     showgrid="false" />
  <g
     inkscape:groupmode="layer"
     inkscape:label="Image"
     id="g54"
     transform="translate(-25.71448,-2.2477801)">
    <g
       id="g19903"
       inkscape:export-filename="tumblr.svg"
       inkscape:export-xdpi="96"
       inkscape:export-ydpi="96">
      <path
         style="fill:#808080;stroke-width:0.32"
         d="m 35.469044,24.730566 c -1.176282,-0.206596 -4.268707,-1.920931 -5.76574,-3.19633 -2.236422,-1.905322 -3.191331,-3.729219 -3.461411,-6.611372 -0.223078,-2.38057 0.16594,-5.013197 0.854097,-5.7799912 0.150053,-0.1672 0.272824,-0.5700758 0.272824,-0.8952797 0,-1.2032633 3.881704,-4.2928717 6.56,-5.2213749 2.285567,-0.7923534 5.400657,-1.0407739 5.76,-0.4593454 0.108774,0.176 0.450225,0.32 0.75878,0.32 0.948632,0 3.118947,1.2058886 4.084314,2.2693606 0.504299,0.5555469 1.240906,1.3061783 1.636906,1.6680698 0.396,0.3618912 0.72,0.8761363 0.72,1.142767 0,0.2666304 0.37758,0.8788906 0.839065,1.360578 0.794755,0.8295448 0.839472,1.0523958 0.846754,4.2198978 0.0065,2.821136 -0.104583,3.576025 -0.710237,4.827138 -0.394859,0.81567 -0.998791,1.633351 -1.342071,1.817069 -0.343281,0.183718 -0.744677,0.649278 -0.891993,1.034577 -0.433745,1.13444 -5.392452,3.433693 -7.635265,3.540319 -1.004439,0.04775 -2.141149,0.03151 -2.526023,-0.03608 z m 5.33977,-6.494324 c 0,-1.171988 -0.3094,-1.462094 -1.420937,-1.332328 -1.205874,0.140779 -1.712147,-0.437487 -1.625844,-1.857041 0.142894,-2.350379 0.06372,-2.24 1.606781,-2.24 1.432381,0 1.44,-0.0059 1.44,-1.12 v -1.12 h -1.6 -1.6 V 9.1268728 c 0,-1.6762326 -0.30873,-1.835441 -0.912811,-0.4707261 -0.251306,0.5677399 -0.946487,1.2332547 -1.678116,1.6065043 -1.357257,0.692421 -1.681777,1.786745 -0.757365,2.553938 0.378398,0.314043 0.460568,0.884402 0.356576,2.475071 -0.124094,1.898164 -0.06328,2.147403 0.744564,3.051538 1.539311,1.722788 5.447152,1.646056 5.447152,-0.106956 z M 39.10741,15.306873 c -0.102152,-0.255275 -0.177978,-0.179448 -0.193333,0.193333 -0.01389,0.337334 0.06174,0.526334 0.16807,0.42 0.106334,-0.106333 0.117702,-0.382333 0.02526,-0.613333 z m 3.52,-4.16 c -0.102152,-0.255275 -0.177978,-0.179448 -0.193333,0.193333 -0.01389,0.337334 0.06174,0.526334 0.16807,0.42 0.106334,-0.106333 0.117702,-0.382333 0.02526,-0.613333 z"
         id="path19569" />
      <path
         style="fill:#ffffff;stroke-width:0.32"
         d="m 35.004646,24.766998 c -1.176282,-0.206596 -4.268707,-1.920931 -5.76574,-3.19633 -2.236422,-1.905322 -3.191331,-3.729219 -3.461411,-6.611372 -0.223078,-2.38057 0.16594,-5.0131974 0.854097,-5.7799914 0.150053,-0.1672 0.272824,-0.570076 0.272824,-0.89528 0,-1.203263 3.881704,-4.292871 6.56,-5.221375 2.285567,-0.792353 5.400657,-1.040774 5.76,-0.459345 0.108774,0.176 0.450225,0.32 0.75878,0.32 0.948632,0 3.118947,1.205889 4.084314,2.269361 0.504299,0.555546 1.240906,1.306178 1.636906,1.668069 0.396,0.361891 0.72,0.876137 0.72,1.142767 0,0.266631 0.37758,0.878891 0.839065,1.360578 0.794755,0.8295454 0.839472,1.0523964 0.846754,4.2198984 0.0065,2.821136 -0.104583,3.576025 -0.710237,4.827138 -0.394859,0.81567 -0.998791,1.633351 -1.342071,1.817069 -0.343281,0.183718 -0.744677,0.649278 -0.891993,1.034577 -0.433745,1.13444 -5.392452,3.433693 -7.635265,3.540319 -1.004439,0.04775 -2.141149,0.03151 -2.526023,-0.03608 z m 5.33977,-6.494324 c 0,-1.171988 -0.3094,-1.462094 -1.420937,-1.332328 -1.205874,0.140779 -1.712147,-0.437487 -1.625844,-1.857041 0.142894,-2.350379 0.06372,-2.24 1.606781,-2.24 1.432381,0 1.44,-0.0059 1.44,-1.12 v -1.12 h -1.6 -1.6 V 9.1633046 c 0,-1.676233 -0.30873,-1.835441 -0.912811,-0.470726 -0.251306,0.56774 -0.946487,1.233254 -1.678116,1.6065044 -1.357257,0.692421 -1.681777,1.786745 -0.757365,2.553938 0.378398,0.314043 0.460568,0.884402 0.356576,2.475071 -0.124094,1.898164 -0.06328,2.147403 0.744564,3.051538 1.539311,1.722788 5.447152,1.646056 5.447152,-0.106956 z m -1.701404,-2.929369 c -0.102152,-0.255275 -0.177978,-0.179448 -0.193333,0.193333 -0.01389,0.337334 0.06174,0.526334 0.16807,0.42 0.106334,-0.106333 0.117702,-0.382333 0.02526,-0.613333 z m 3.52,-4.16 c -0.102152,-0.255275 -0.177978,-0.179448 -0.193333,0.193333 -0.01389,0.337334 0.06174,0.526334 0.16807,0.42 0.106334,-0.106333 0.117702,-0.382333 0.02526,-0.613333 z"
         id="path19569-3" />
    </g>
  </g>
</svg>
