<?xml version="1.0" encoding="UTF-8" standalone="no"?>
<!-- Created with Inkscape (http://www.inkscape.org/) -->

<svg
   width="23.098145mm"
   height="22.837006mm"
   viewBox="0 0 23.098145 22.837006"
   version="1.1"
   id="svg5"
   xml:space="preserve"
   xmlns:inkscape="http://www.inkscape.org/namespaces/inkscape"
   xmlns:sodipodi="http://sodipodi.sourceforge.net/DTD/sodipodi-0.dtd"
   xmlns="http://www.w3.org/2000/svg"
   xmlns:svg="http://www.w3.org/2000/svg"><sodipodi:namedview
     id="namedview7"
     pagecolor="#505050"
     bordercolor="#eeeeee"
     borderopacity="1"
     inkscape:showpageshadow="0"
     inkscape:pageopacity="0"
     inkscape:pagecheckerboard="0"
     inkscape:deskcolor="#505050"
     inkscape:document-units="mm"
     showgrid="false" /><defs
     id="defs2" /><g
     inkscape:label="Capa 1"
     inkscape:groupmode="layer"
     id="layer1"
     transform="translate(-112.3136,-91.019567)"><g
       id="g223"><path
         style="fill:#393939;stroke-width:0.0496094"
         d="m 120.16771,113.32495 c -0.191,-0.0478 -0.40029,-0.10432 -0.4651,-0.12569 -0.0797,-0.0263 -0.10717,-0.0216 -0.0849,0.0145 0.0181,0.0293 -0.18557,-0.0614 -0.45267,-0.20157 -0.2671,-0.14019 -0.58087,-0.30283 -0.69727,-0.36142 -0.1164,-0.0586 -0.19521,-0.12294 -0.17514,-0.143 0.0201,-0.0201 -0.006,-0.0204 -0.057,-6.3e-4 -0.07,0.0269 -0.0833,0.0194 -0.0528,-0.0299 0.0268,-0.0433 0.0214,-0.0538 -0.0156,-0.0309 -0.0309,0.0191 -0.10695,0.008 -0.1689,-0.0252 -0.0619,-0.033 -0.14221,-0.0954 -0.17834,-0.13872 -0.0361,-0.0433 -0.0516,-0.0508 -0.0343,-0.0167 0.0173,0.0341 0.0187,0.062 0.003,0.062 -0.0155,0 -0.12061,-0.067 -0.23361,-0.14883 -0.113,-0.0819 -0.23559,-0.14883 -0.27242,-0.14883 -0.0368,0 -0.067,-0.0223 -0.067,-0.0496 0,-0.0273 -0.0188,-0.044 -0.0417,-0.0372 -0.023,0.007 -0.22236,-0.1048 -0.44312,-0.24804 -0.22077,-0.14325 -0.42655,-0.26045 -0.45729,-0.26045 -0.0307,0 -0.0423,-0.0221 -0.0256,-0.049 0.018,-0.0291 -0.004,-0.0358 -0.0548,-0.0164 -0.0623,0.0239 -0.0742,0.0151 -0.0445,-0.033 0.026,-0.0421 0.0214,-0.0538 -0.0129,-0.0327 -0.0294,0.0182 -0.2282,-0.0873 -0.44175,-0.23446 -0.21355,-0.14713 -0.48765,-0.35389 -0.60911,-0.45946 -0.12146,-0.10558 -0.33456,-0.30358 -0.47355,-0.44001 -0.13898,-0.13643 -0.23048,-0.2313 -0.20332,-0.21084 0.0272,0.0205 0.098,0.0372 0.15743,0.0372 0.0594,0 0.19148,-0.0349 0.29345,-0.0775 0.18539,-0.0775 0.18539,-0.0775 0.56733,0.28526 0.21007,0.19949 0.46773,0.43527 0.57258,0.52394 0.10485,0.0887 0.19723,0.16124 0.20529,0.16124 0.008,0 0.15525,0.0977 0.32709,0.21705 0.17184,0.11938 0.41289,0.26763 0.53567,0.32944 0.12279,0.0618 0.35614,0.20413 0.51857,0.31625 0.16243,0.11212 0.408,0.2637 0.54571,0.33684 0.1377,0.0731 0.43532,0.22442 0.66136,0.33616 0.22605,0.11175 0.6962,0.35559 1.04478,0.54187 0.34859,0.18629 0.69943,0.36253 0.77964,0.39166 0.13967,0.0507 0.14059,0.053 0.0218,0.0532 -0.0682,1.5e-4 -0.28029,-0.0388 -0.47129,-0.0866 z m -6.89777,-3.70043 c -0.17861,-0.17861 -0.21317,-0.23999 -0.17459,-0.31006 0.0265,-0.0481 0.0916,-0.19122 0.14466,-0.31817 0.0966,-0.23081 0.0966,-0.23081 -0.0149,-0.47129 -0.0613,-0.13226 -0.21748,-0.70929 -0.34708,-1.28227 -0.20533,-0.90774 -0.25991,-1.0801 -0.42416,-1.33946 -0.13625,-0.21513 -0.19774,-0.37618 -0.22181,-0.58089 -0.0241,-0.20504 -0.0985,-0.39953 -0.26944,-0.70448 -0.19765,-0.35258 -0.2378,-0.46815 -0.24632,-0.70895 -0.006,-0.15824 -0.0229,-0.36584 -0.0385,-0.46134 -0.0156,-0.0955 -0.0838,-0.3299 -0.15169,-0.5209 -0.084,-0.2366 -0.13202,-0.49967 -0.15061,-0.8255 -0.015,-0.26303 -0.002,-0.65371 0.029,-0.86817 0.031,-0.21446 0.0669,-0.68083 0.0799,-1.03639 0.017,-0.464181 0.058,-0.778991 0.14573,-1.116448 0.0672,-0.258489 0.17889,-0.626143 0.24829,-0.817009 0.0694,-0.190867 0.21665,-0.514462 0.32721,-0.719101 0.11057,-0.204638 0.30052,-0.528339 0.42212,-0.719336 0.12161,-0.190996 0.35734,-0.592832 0.52386,-0.892968 0.16652,-0.300137 0.39659,-0.714236 0.51128,-0.920221 0.11469,-0.205986 0.28573,-0.473135 0.38009,-0.593666 0.0944,-0.120531 0.2497,-0.306615 0.3452,-0.413521 0.0955,-0.106905 0.27409,-0.289472 0.39688,-0.405705 0.12278,-0.116232 0.35718,-0.322512 0.5209,-0.458401 0.16371,-0.135889 0.45652,-0.327994 0.6507,-0.426899 0.19418,-0.09891 0.3679,-0.17983 0.38605,-0.17983 0.0182,0 0.19406,-0.07813 0.39092,-0.173632 0.19685,-0.0955 0.39929,-0.173633 0.44985,-0.173633 0.0506,0 0.30737,-0.05823 0.57068,-0.129398 0.26331,-0.07117 0.60153,-0.15967 0.7516,-0.19667 0.15007,-0.037 0.3175,-0.06658 0.37207,-0.06572 0.0546,8.53e-4 0.01,0.02934 -0.0992,0.0633 -0.10914,0.03396 -0.41052,0.112947 -0.66973,0.175521 -0.25921,0.06257 -0.59407,0.16592 -0.74414,0.229659 -0.15007,0.06374 -0.48493,0.216473 -0.74414,0.339409 -0.332,0.157463 -0.59591,0.331496 -0.89297,0.588873 -0.23192,0.200944 -0.59411,0.564905 -0.80485,0.808802 -0.21075,0.243898 -0.48077,0.622044 -0.60004,0.840325 -0.11928,0.218282 -0.3618,0.65623 -0.53895,0.973219 -0.17714,0.316988 -0.3671,0.640689 -0.42212,0.719336 -0.055,0.07864 -0.23638,0.39103 -0.40304,0.694188 -0.16665,0.303157 -0.34869,0.673315 -0.40453,0.822573 -0.0559,0.149257 -0.15803,0.459325 -0.22708,0.689038 -0.0985,0.327709 -0.13487,0.594114 -0.1689,1.236944 -0.0238,0.450611 -0.0697,0.964071 -0.10183,1.141021 -0.0358,0.19693 -0.045,0.46605 -0.0238,0.6938 0.0191,0.20464 0.0438,0.41672 0.0549,0.47129 0.0112,0.0546 0.0314,0.20518 0.0449,0.33469 0.0136,0.12951 0.0677,0.35275 0.12035,0.49609 0.0526,0.14334 0.11082,0.45038 0.12931,0.6823 0.0219,0.27492 0.0713,0.49938 0.14199,0.64493 0.0596,0.12278 0.17972,0.35211 0.26693,0.50961 0.0872,0.15751 0.15856,0.32756 0.15856,0.3779 0,0.0504 0.10046,0.24135 0.22324,0.42445 0.12451,0.18568 0.2235,0.39153 0.22383,0.46545 3.2e-4,0.0729 0.0311,0.24694 0.0683,0.38675 0.0634,0.23811 0.0621,0.25272 -0.0212,0.23094 -0.0781,-0.0204 -0.0838,-0.003 -0.0468,0.14268 0.0232,0.0913 0.0974,0.33336 0.16494,0.538 0.0675,0.20464 0.20533,0.52434 0.30617,0.71046 0.18336,0.33839 0.18336,0.33839 0.0541,0.62632 -0.0711,0.15836 -0.12921,0.33263 -0.12921,0.38727 0,0.0546 0.033,0.12675 0.0734,0.16025 0.0404,0.0335 0.10567,0.12563 0.14514,0.20474 0.0655,0.13132 0.0637,0.14814 -0.0205,0.19322 -0.0507,0.0272 -0.18362,0.0494 -0.29527,0.0494 -0.17438,0 -0.23441,-0.0314 -0.42571,-0.2227 z m 10.6204,-2.19005 c 0.18857,-0.12647 0.48852,-0.30773 0.66655,-0.4028 0.17804,-0.0951 0.39477,-0.22601 0.48163,-0.29096 0.0869,-0.065 0.17734,-0.1181 0.20107,-0.1181 0.0237,0 0.14242,-0.0712 0.26376,-0.15816 0.12133,-0.087 0.35455,-0.27829 0.51826,-0.42511 0.16372,-0.14682 0.39812,-0.36343 0.5209,-0.48137 0.12279,-0.11793 0.27418,-0.24033 0.33642,-0.272 0.0623,-0.0317 0.17924,-0.14877 0.25998,-0.26022 0.0807,-0.11146 0.29769,-0.36562 0.48213,-0.56481 0.18444,-0.19919 0.47782,-0.5188 0.65195,-0.71025 0.17413,-0.19145 0.3903,-0.46633 0.48037,-0.61084 0.0901,-0.14451 0.29095,-0.50832 0.44639,-0.80845 0.15543,-0.30014 0.33278,-0.67965 0.39409,-0.84336 0.0613,-0.16371 0.14729,-0.47625 0.19105,-0.69453 0.0438,-0.21828 0.15813,-0.63657 0.25414,-0.929521 0.13452,-0.41042 0.17458,-0.61498 0.17458,-0.891514 0,-0.197382 -0.0279,-0.481101 -0.062,-0.630488 -0.0546,-0.239097 -0.10618,-0.314982 -0.43093,-0.633905 -0.2029,-0.199262 -0.43011,-0.389385 -0.50492,-0.422497 -0.0748,-0.03311 -0.12279,-0.08158 -0.10664,-0.107715 0.0162,-0.02613 -0.003,-0.03497 -0.0433,-0.01963 -0.04,0.01533 -0.12733,-0.0024 -0.19417,-0.03942 -0.0772,-0.04277 -0.0935,-0.06794 -0.0446,-0.06906 0.0423,-9.68e-4 0.10368,0.02503 0.13643,0.05777 0.0463,0.0463 0.0595,0.04592 0.0595,-0.0017 0,-0.04491 0.0695,-0.05262 0.26045,-0.02893 0.14324,0.01777 0.34974,0.07187 0.45888,0.120209 0.10914,0.04834 0.36338,0.252234 0.56496,0.45309 0.20159,0.200855 0.41868,0.433521 0.48242,0.517035 0.11162,0.146235 0.11425,0.170057 0.0711,0.644922 -0.028,0.308163 -0.10164,0.667313 -0.19633,0.957673 -0.0833,0.255531 -0.18616,0.635041 -0.22851,0.843361 -0.0424,0.20832 -0.12154,0.50916 -0.17596,0.66853 -0.0544,0.15938 -0.22619,0.53889 -0.38169,0.84336 -0.15551,0.30448 -0.3777,0.6987 -0.49377,0.87606 -0.11606,0.17735 -0.33976,0.46522 -0.49711,0.6397 -0.15735,0.17449 -0.46469,0.51341 -0.68297,0.75316 -0.21828,0.23975 -0.47986,0.52115 -0.5813,0.62533 -0.10143,0.10418 -0.30235,0.29413 -0.44648,0.42211 -0.14413,0.12798 -0.39601,0.35294 -0.55972,0.49992 -0.16371,0.14698 -0.39811,0.33665 -0.5209,0.4215 -0.12278,0.0849 -0.40527,0.26173 -0.62776,0.39305 -0.22249,0.13133 -0.5127,0.30106 -0.64492,0.37719 -0.13222,0.0761 -0.38541,0.22681 -0.56264,0.33486 -0.23147,0.14112 -0.37731,0.19646 -0.51773,0.19646 -0.19549,0 -0.19549,0 0.14736,-0.22994 z m -0.4717,-3.74126 c -0.16454,-0.16506 -0.30196,-0.32133 -0.30537,-0.34727 -0.003,-0.0259 -0.009,-0.0639 -0.0125,-0.0844 -0.003,-0.0205 -0.0443,-0.15999 -0.0907,-0.31005 -0.0464,-0.15007 -0.13001,-0.46261 -0.18571,-0.69454 -0.0557,-0.23192 -0.12495,-0.60712 -0.1539,-0.83378 -0.0289,-0.22665 -0.0968,-0.58384 -0.15088,-0.79375 -0.054,-0.2099 -0.11768,-0.50443 -0.14144,-0.654501 -0.0238,-0.15007 -0.0676,-0.41238 -0.0974,-0.58291 -0.0298,-0.17053 -0.0753,-0.444506 -0.10105,-0.608834 -0.0257,-0.164328 -0.12621,-0.454569 -0.22325,-0.644981 -0.097,-0.190413 -0.17643,-0.35734 -0.17643,-0.370949 0,-0.01361 0.17605,-0.02474 0.39122,-0.02474 0.39122,0 0.39122,0 0.47129,0.168728 0.044,0.0928 0.0801,0.199956 0.0801,0.238125 0,0.03817 0.0222,0.09158 0.0493,0.118698 0.0271,0.02712 0.0614,0.193431 0.0761,0.36959 0.0148,0.176158 0.059,0.476558 0.0983,0.667563 0.0393,0.19099 0.0919,0.45887 0.11686,0.59531 0.025,0.136421 0.0917,0.421651 0.14832,0.633841 0.0566,0.21219 0.11667,0.53589 0.13346,0.71934 0.0168,0.18344 0.0518,0.42283 0.0778,0.53197 0.026,0.10915 0.0542,0.24309 0.0627,0.29766 0.008,0.0546 0.0316,0.14977 0.0515,0.21156 0.0199,0.0618 0.0549,0.10073 0.0779,0.0865 0.023,-0.0142 0.0317,0.0379 0.0194,0.11574 -0.0136,0.0861 0.005,0.16464 0.0488,0.20054 0.0391,0.0325 0.0594,0.10349 0.0452,0.15787 -0.0142,0.0544 0.0128,0.20014 0.0601,0.3239 0.0582,0.15237 0.10823,0.21646 0.155,0.19851 0.038,-0.0146 0.0691,0.003 0.0691,0.0389 0,0.036 0.0671,0.15806 0.14914,0.27129 0.082,0.11324 0.18248,0.20587 0.22324,0.20587 0.0408,0 0.0741,0.0223 0.0741,0.0496 0,0.0287 -0.15659,0.0496 -0.37055,0.0496 -0.37055,0 -0.37055,0 -0.66973,-0.3001 z"
         id="path214" /><path
         style="fill:#020202;stroke-width:0.0496094"
         d="m 123.04184,113.83296 c -0.0801,-0.0342 -0.11213,-0.0645 -0.0712,-0.0675 0.0412,-0.003 0.0204,-0.0269 -0.0464,-0.0537 -0.0665,-0.0266 -0.32319,-0.0905 -0.57051,-0.14204 -0.24733,-0.0516 -0.60595,-0.11896 -0.79695,-0.14977 -0.19099,-0.0308 -0.47491,-0.0887 -0.63092,-0.12861 -0.15601,-0.0399 -0.32153,-0.0871 -0.36781,-0.1049 -0.0558,-0.0214 -0.0724,-0.0133 -0.0493,0.0241 0.0192,0.0311 -0.18365,-0.0583 -0.45075,-0.19845 -0.26709,-0.14019 -0.58086,-0.30283 -0.69726,-0.36142 -0.1164,-0.0586 -0.19521,-0.12294 -0.17515,-0.143 0.0201,-0.0201 -0.006,-0.0204 -0.057,-6.3e-4 -0.07,0.0269 -0.0833,0.0194 -0.0528,-0.0299 0.0268,-0.0433 0.0214,-0.0538 -0.0156,-0.0309 -0.0309,0.0191 -0.10694,0.008 -0.16889,-0.0252 -0.062,-0.033 -0.14221,-0.0954 -0.17834,-0.13872 -0.0361,-0.0433 -0.0516,-0.0508 -0.0343,-0.0167 0.0173,0.0341 0.0187,0.062 0.003,0.062 -0.0155,0 -0.12061,-0.067 -0.23361,-0.14883 -0.113,-0.0819 -0.23559,-0.14883 -0.27242,-0.14883 -0.0368,0 -0.067,-0.0223 -0.067,-0.0496 0,-0.0273 -0.0188,-0.044 -0.0417,-0.0372 -0.0229,0.007 -0.22236,-0.1048 -0.44312,-0.24804 -0.22077,-0.14325 -0.42655,-0.26045 -0.4573,-0.26045 -0.0307,0 -0.0423,-0.0221 -0.0256,-0.049 0.018,-0.0291 -0.004,-0.0358 -0.0548,-0.0164 -0.0623,0.0239 -0.0743,0.0151 -0.0445,-0.033 0.026,-0.0421 0.0214,-0.0538 -0.0129,-0.0327 -0.0294,0.0182 -0.2282,-0.0873 -0.44174,-0.23446 -0.21355,-0.14713 -0.48873,-0.35356 -0.61151,-0.45873 -0.12279,-0.10517 -0.37518,-0.34628 -0.56089,-0.53578 -0.33412,-0.34098 -0.33932,-0.34395 -0.49961,-0.28599 -0.0891,0.0322 -0.2447,0.0586 -0.3458,0.0586 -0.15164,0 -0.22279,-0.039 -0.40651,-0.2227 -0.17861,-0.17861 -0.21318,-0.23999 -0.17459,-0.31006 0.0265,-0.0481 0.0918,-0.19175 0.14518,-0.31934 0.0966,-0.2308 0.0966,-0.23299 -0.002,-0.4325 -0.0546,-0.11028 -0.1533,-0.44121 -0.21942,-0.7354 -0.0661,-0.29419 -0.17844,-0.78045 -0.24962,-1.08059 -0.0946,-0.3988 -0.17983,-0.62583 -0.3167,-0.84336 -0.13827,-0.21977 -0.19635,-0.37554 -0.22194,-0.59531 -0.0195,-0.16791 -0.0921,-0.40578 -0.16641,-0.5457 -0.0725,-0.13643 -0.14515,-0.25921 -0.16153,-0.27285 -0.0164,-0.0136 -0.057,-0.0765 -0.0903,-0.13975 -0.0333,-0.0632 -0.0783,-0.33111 -0.0999,-0.59532 -0.0273,-0.33324 -0.0812,-0.58672 -0.17587,-0.82763 -0.1199,-0.30507 -0.13729,-0.4196 -0.14313,-0.94258 -0.004,-0.32742 0.0207,-0.8632 0.0541,-1.19062 0.0334,-0.32742 0.065,-0.75158 0.07,-0.942581 0.005,-0.191 0.0401,-0.48096 0.0778,-0.64437 0.0377,-0.163402 0.14488,-0.520589 0.23813,-0.793747 0.0932,-0.273157 0.26034,-0.664081 0.37131,-0.86872 0.11096,-0.204638 0.30125,-0.528339 0.42285,-0.719336 0.1216,-0.190996 0.35734,-0.592832 0.52385,-0.892968 0.16652,-0.300137 0.3966,-0.714236 0.51129,-0.920221 0.11469,-0.205986 0.28573,-0.473135 0.38009,-0.593666 0.0944,-0.120531 0.2497,-0.306615 0.3452,-0.413521 0.0955,-0.106905 0.27409,-0.289472 0.39687,-0.405705 0.12279,-0.116232 0.35719,-0.322512 0.5209,-0.458401 0.16371,-0.135889 0.45653,-0.327994 0.65071,-0.426899 0.19417,-0.09891 0.3679,-0.17983 0.38605,-0.17983 0.0182,0 0.19406,-0.07813 0.39092,-0.173632 0.19685,-0.0955 0.40264,-0.174012 0.45731,-0.174474 0.0547,-4.61e-4 0.30031,-0.05653 0.54587,-0.124603 0.24557,-0.06807 0.63624,-0.165811 0.86817,-0.217205 0.23192,-0.05139 0.60027,-0.143216 0.81855,-0.204049 0.21828,-0.06083 0.49733,-0.129502 0.62012,-0.152599 0.12278,-0.0231 0.33486,-0.07454 0.47129,-0.114308 0.13642,-0.03977 0.37279,-0.107386 0.52526,-0.150253 0.15246,-0.04287 0.35016,-0.07794 0.43932,-0.07794 0.0892,0 0.29928,-0.03556 0.46693,-0.07903 0.26033,-0.06749 0.56546,-0.07568 2.09075,-0.05606 1.56169,0.02009 1.8544,0.03632 2.33116,0.129272 0.29987,0.05847 0.73359,0.163757 0.96381,0.233979 0.23022,0.07022 0.58371,0.169908 0.78553,0.221524 0.20181,0.05162 0.47131,0.149253 0.59888,0.216971 0.12757,0.06772 0.35473,0.177159 0.5048,0.243202 0.15215,0.06696 0.39404,0.237922 0.54679,0.386456 0.15066,0.146508 0.48718,0.523107 0.74782,0.836886 0.26064,0.313779 0.65225,0.762858 0.87023,0.997954 0.21799,0.235095 0.6192,0.726227 0.89157,1.091406 0.27238,0.365178 0.57484,0.775582 0.67214,0.912007 0.0973,0.136426 0.23535,0.354087 0.30679,0.483692 0.0714,0.129604 0.11358,0.235986 0.0937,0.236404 -0.0199,3.97e-4 -0.0114,0.01716 0.0189,0.03721 0.0303,0.02005 0.0917,0.107892 0.13643,0.195214 0.0447,0.08732 0.0813,0.215686 0.0813,0.285254 0,0.06957 0.0236,0.126487 0.0525,0.126487 0.0289,0 0.0387,0.02232 0.0219,0.04961 -0.0169,0.02729 -0.007,0.04961 0.0219,0.04961 0.0289,0 0.0525,0.04333 0.0525,0.09629 0,0.05296 0.0227,0.110313 0.0504,0.127451 0.0277,0.01714 0.039,0.0496 0.0251,0.07214 -0.0139,0.02254 0.008,0.05363 0.0479,0.0691 0.0524,0.02013 0.0647,0.07093 0.0431,0.178831 -0.0205,0.102636 -0.0107,0.150716 0.031,0.150716 0.0336,0 0.0493,0.03071 0.0349,0.06824 -0.0144,0.03753 7.8e-4,0.121249 0.0337,0.186035 0.033,0.06479 0.0898,0.218252 0.12635,0.341036 0.0365,0.122783 0.0725,0.33216 0.08,0.46529 0.007,0.13312 0.0326,0.2559 0.0558,0.27285 0.0232,0.0169 0.0444,0.0866 0.0472,0.15483 0.003,0.0682 0.0177,0.191001 0.0331,0.272851 0.0155,0.0819 0.0303,0.14883 0.033,0.14883 0.003,0 0.017,0.1786 0.0317,0.39688 0.0148,0.21828 0.0258,0.4471 0.0246,0.50849 -0.001,0.0614 0.0142,0.11166 0.0344,0.11169 0.0202,4e-5 0.0382,0.28468 0.0401,0.63252 0.002,0.34785 0.0195,0.69572 0.0392,0.77304 0.0197,0.0773 0.0173,0.12919 -0.005,0.11526 -0.0225,-0.0139 -0.041,0.016 -0.041,0.0666 0,0.0506 0.0213,0.0787 0.0474,0.0626 0.0288,-0.0178 0.0317,0.008 0.007,0.0657 -0.022,0.0522 -0.0327,0.15077 -0.0239,0.21898 0.009,0.0682 0.0153,0.35843 0.0144,0.64492 -9.3e-4,0.2865 -0.0155,0.57341 -0.0323,0.63758 -0.0168,0.0642 -0.0593,0.15218 -0.0945,0.19556 -0.0525,0.0649 -0.0521,0.0718 0.002,0.0391 0.0482,-0.029 0.0446,0.002 -0.0137,0.1145 -0.0439,0.0849 -0.069,0.15429 -0.0559,0.15429 0.0131,0 -0.0103,0.0949 -0.0521,0.21084 -0.0418,0.11596 -0.0854,0.24991 -0.097,0.29765 -0.0116,0.0477 -0.0318,0.13594 -0.0449,0.19599 -0.0131,0.06 -0.0609,0.1884 -0.10619,0.28525 -0.0453,0.0969 -0.12942,0.24275 -0.18697,0.32422 -0.0576,0.0815 -0.1354,0.20425 -0.17298,0.27285 -0.0376,0.0686 -0.21968,0.42052 -0.40467,0.78205 -0.18498,0.36152 -0.32696,0.65732 -0.31551,0.65732 0.0114,0 -0.0353,0.0889 -0.10383,0.19745 -0.0686,0.1086 -0.12465,0.21194 -0.12465,0.22964 0,0.0177 -0.11523,0.20232 -0.25608,0.41026 -0.14084,0.20795 -0.28594,0.39593 -0.32246,0.41775 -0.0365,0.0218 -0.0664,0.0593 -0.0664,0.0833 0,0.024 -0.13394,0.17139 -0.29765,0.32754 -0.16371,0.15616 -0.29766,0.3068 -0.29766,0.33477 0,0.028 0.0726,0.11295 0.16123,0.18887 0.1176,0.10066 0.13853,0.13856 0.0773,0.14003 -0.0461,0.001 -0.0982,0.0252 -0.11578,0.0536 -0.0207,0.0335 0.0132,0.0403 0.0963,0.0194 0.0845,-0.0212 0.12818,-0.0119 0.12818,0.0274 0,0.0328 -0.0417,0.11256 -0.0926,0.17733 -0.051,0.0648 -0.10521,0.10518 -0.12058,0.0898 -0.0154,-0.0154 -0.0572,0.0189 -0.0929,0.0761 -0.0357,0.0572 -0.0931,0.10405 -0.12746,0.10405 -0.0344,0 -0.0625,0.0179 -0.0625,0.0398 0,0.0219 -0.17302,0.15492 -0.38448,0.2956 -0.21146,0.14068 -0.52958,0.31083 -0.70693,0.37812 -0.17735,0.0673 -0.50478,0.21332 -0.72763,0.32451 -0.22284,0.11119 -0.43025,0.20217 -0.46091,0.20217 -0.0307,0 -0.19938,0.0464 -0.37493,0.10311 -0.17554,0.0567 -0.33398,0.0995 -0.35209,0.095 -0.0181,-0.004 -0.0466,0.0105 -0.0633,0.0333 -0.0167,0.0228 -0.13081,0.0949 -0.25359,0.16021 -0.12278,0.0653 -0.36835,0.19219 -0.5457,0.28192 -0.20559,0.10402 -0.68208,0.2529 -1.31465,0.41078 -0.54571,0.1362 -1.1373,0.26239 -1.31465,0.28042 -0.17735,0.018 -0.54869,0.0877 -0.8252,0.15491 -0.36844,0.0895 -0.66748,0.12544 -1.11943,0.13455 -0.40949,0.008 -0.66561,-0.008 -0.7623,-0.0497 z m 3.36425,-5.41466 c 0.075,-0.0701 0.13642,-0.17917 0.13642,-0.24228 0,-0.0631 0.0223,-0.11474 0.0496,-0.11474 0.0273,0 0.0493,-0.10604 0.0489,-0.23564 -3.9e-4,-0.12961 -0.0141,-0.28588 -0.0306,-0.34727 -0.0165,-0.0614 -0.0583,-0.11162 -0.0929,-0.11162 -0.0347,0 -0.2553,0.10228 -0.4903,0.2273 -0.23501,0.12501 -0.42728,0.25476 -0.42728,0.28833 0,0.0336 0.067,0.11054 0.14882,0.17106 0.11999,0.0887 0.14883,0.14659 0.14883,0.29871 0,0.10378 0.011,0.19972 0.0245,0.21321 0.0135,0.0135 0.0972,0.0146 0.18604,0.003 0.0888,-0.0121 0.2229,-0.0794 0.29794,-0.14956 z m -2.03152,-0.73512 c 0.0873,-0.0442 0.28804,-0.16782 0.44604,-0.27461 0.15801,-0.1068 0.43706,-0.27419 0.62012,-0.37197 0.18306,-0.0978 0.4039,-0.23094 0.49076,-0.29589 0.0869,-0.065 0.17733,-0.1181 0.20107,-0.1181 0.0237,0 0.14242,-0.0712 0.26375,-0.15816 0.12134,-0.087 0.35456,-0.27829 0.51827,-0.42511 0.16371,-0.14682 0.39812,-0.36343 0.5209,-0.48137 0.12279,-0.11793 0.27417,-0.24033 0.33642,-0.272 0.0622,-0.0317 0.17924,-0.14877 0.25997,-0.26022 0.0807,-0.11146 0.2977,-0.36562 0.48214,-0.56481 0.18444,-0.19919 0.47781,-0.5188 0.65195,-0.71025 0.17413,-0.19145 0.39066,-0.46633 0.48118,-0.61084 0.0905,-0.14451 0.30972,-0.54802 0.48713,-0.89668 0.17742,-0.34867 0.36613,-0.78399 0.41938,-0.96739 0.0532,-0.18339 0.1532,-0.55669 0.22213,-0.82954 0.0689,-0.27285 0.16391,-0.596551 0.21105,-0.719331 0.0501,-0.13053 0.0949,-0.41898 0.10786,-0.694535 0.0163,-0.34638 4e-4,-0.546021 -0.06,-0.753254 -0.0689,-0.236557 -0.13395,-0.330453 -0.40399,-0.583062 -0.17703,-0.165604 -0.38237,-0.339808 -0.45632,-0.387119 -0.0739,-0.04731 -0.16523,-0.1155 -0.20286,-0.151529 -0.0376,-0.03603 -0.10017,-0.05332 -0.139,-0.03842 -0.0429,0.01645 -0.0574,0.0057 -0.037,-0.02727 0.0227,-0.03674 -0.003,-0.04287 -0.078,-0.01892 -0.072,0.02285 -0.10039,0.01722 -0.08,-0.01583 0.0191,-0.03092 -0.0801,-0.07448 -0.25006,-0.109758 -0.21916,-0.0455 -0.32675,-0.04499 -0.48436,0.0023 -0.11144,0.03343 -0.29191,0.09351 -0.40105,0.133525 -0.10914,0.04001 -0.32569,0.149896 -0.48122,0.244191 -0.15552,0.09429 -0.42341,0.244045 -0.59531,0.33278 -0.17189,0.08873 -0.44648,0.248876 -0.61019,0.355868 -0.16371,0.106993 -0.39326,0.291337 -0.51012,0.409654 -0.11686,0.118316 -0.27738,0.34912 -0.35671,0.512897 -0.11577,0.238982 -0.13014,0.302142 -0.0728,0.319892 0.0393,0.0122 0.10423,0.0323 0.14428,0.0448 0.04,0.0125 0.0825,0.007 0.0944,-0.0124 0.0119,-0.0193 0.1474,-0.0273 0.30118,-0.0179 0.23929,0.0146 0.29155,0.0361 0.36247,0.14883 0.0456,0.0725 0.14687,0.19105 0.2251,0.26356 0.1325,0.12281 0.13603,0.13544 0.0516,0.18452 -0.0498,0.029 -0.0683,0.0534 -0.041,0.0542 0.0273,8.3e-4 0.0496,0.0573 0.0496,0.125531 0,0.0682 -0.0181,0.12403 -0.0401,0.12403 -0.0221,0 -0.0263,0.0223 -0.01,0.0496 0.0169,0.0273 0.006,0.0496 -0.0248,0.0496 -0.0305,0 -0.0419,0.022 -0.0252,0.0489 0.0166,0.0269 0.0105,0.1218 -0.0138,0.21084 -0.0242,0.089 -0.0272,0.22344 -0.007,0.29865 0.0237,0.0871 0.0193,0.12567 -0.0122,0.1062 -0.0274,-0.0169 -0.0436,0.0106 -0.0364,0.0617 0.007,0.0507 -0.004,0.18712 -0.0251,0.30308 -0.021,0.11596 -0.0579,0.21084 -0.0819,0.21084 -0.024,0 -0.0318,0.0309 -0.0174,0.0686 0.0145,0.0378 -0.01,0.15475 -0.0536,0.26002 -0.044,0.10526 -0.0889,0.29204 -0.0999,0.41507 -0.011,0.12302 -0.0226,0.22367 -0.0258,0.22367 -0.003,0 -0.0173,0.067 -0.0315,0.14883 -0.0141,0.0819 -0.0285,0.18626 -0.032,0.232 -0.004,0.0457 -0.0215,0.0738 -0.0401,0.0623 -0.0186,-0.0115 -0.047,0.0136 -0.0632,0.0558 -0.0178,0.0465 -0.009,0.064 0.0228,0.0444 0.0287,-0.0178 -0.0207,0.0983 -0.10984,0.25787 -0.0891,0.15958 -0.24041,0.38503 -0.33615,0.50099 -0.17409,0.21084 -0.17409,0.21084 -0.78218,0.21084 -0.60809,0 -0.60809,0 -0.91017,-0.30302 -0.16614,-0.16666 -0.29085,-0.31425 -0.27713,-0.32797 0.0137,-0.0137 -0.0159,-0.13967 -0.0659,-0.27989 -0.0499,-0.14022 -0.12677,-0.40005 -0.17071,-0.5774 -0.0439,-0.17735 -0.13643,-0.635 -0.20552,-1.01699 -0.0691,-0.382 -0.15849,-0.80971 -0.19867,-0.95047 -0.0402,-0.14077 -0.0933,-0.38634 -0.11795,-0.545711 -0.0247,-0.15937 -0.0683,-0.42371 -0.0968,-0.58742 -0.0286,-0.16371 -0.074,-0.43768 -0.10106,-0.60883 -0.0279,-0.176681 -0.12761,-0.466151 -0.23071,-0.669726 -0.0999,-0.1972 -0.21622,-0.397614 -0.25854,-0.445363 -0.0637,-0.07192 -0.16285,-0.08675 -0.57775,-0.08643 -0.31516,2.48e-4 -0.64331,0.03449 -0.88524,0.09239 -0.25922,0.06203 -0.51533,0.170979 -0.78631,0.334477 -0.22103,0.133361 -0.49452,0.327646 -0.60775,0.431743 -0.11323,0.104097 -0.32511,0.281325 -0.47084,0.39384 -0.14573,0.112515 -0.35223,0.333079 -0.45889,0.490139 -0.10666,0.15707 -0.19392,0.30982 -0.19392,0.33946 0,0.0296 -0.0334,0.0667 -0.0741,0.0823 -0.0408,0.0156 -0.0618,0.0484 -0.0467,0.0729 0.0151,0.0244 0.006,0.0444 -0.021,0.0444 -0.0267,0 -0.0965,0.0777 -0.15525,0.172731 -0.0587,0.095 -0.0924,0.19601 -0.0748,0.22447 0.0176,0.0285 0.005,0.0456 -0.0275,0.0381 -0.0327,-0.007 -0.0708,0.0174 -0.0845,0.0553 -0.0138,0.0379 -0.004,0.0558 0.0223,0.0397 0.026,-0.0161 0.0457,0.0134 0.0436,0.0655 -0.002,0.0521 0.0134,0.10122 0.0342,0.10915 0.0208,0.008 0.12128,-0.0959 0.22325,-0.23071 0.10196,-0.13483 0.30265,-0.3407 0.44597,-0.457481 0.2266,-0.18464 0.28658,-0.21012 0.45997,-0.19542 0.15038,0.0128 0.24128,0.06 0.36978,0.19235 0.15629,0.160921 0.17287,0.207401 0.20028,0.561661 0.0164,0.21242 0.045,0.40986 0.0634,0.43876 0.0184,0.0289 0.0349,0.0637 0.0365,0.0773 0.002,0.0136 0.0292,0.16991 0.0613,0.34726 0.0321,0.17736 0.0702,0.42292 0.0846,0.54571 0.0144,0.12278 0.0466,0.41642 0.0715,0.65252 0.0249,0.23611 0.067,0.47051 0.0935,0.5209 0.0265,0.0504 0.0639,0.20798 0.0831,0.3502 0.0192,0.14223 0.0789,0.34315 0.13258,0.44649 0.0537,0.10334 0.12544,0.26603 0.15937,0.36153 0.0339,0.0955 0.17482,0.3299 0.31307,0.5209 0.13824,0.19099 0.35835,0.53702 0.48912,0.76894 0.13077,0.23193 0.44799,0.73955 0.70494,1.12805 0.25694,0.38851 0.55943,0.78534 0.67218,0.88185 0.11276,0.0965 0.27287,0.19522 0.35581,0.21933 0.0829,0.0241 0.33609,0.0459 0.56254,0.0483 0.28878,0.003 0.45916,-0.0196 0.57051,-0.076 z m 4.07312,-1.26675 c -0.0255,-0.0412 0.0155,-0.0491 0.1459,-0.0279 0.17011,0.0276 0.18135,0.0214 0.18135,-0.10069 0,-0.0716 -0.0485,-0.18177 -0.10787,-0.24492 -0.0624,-0.0665 -0.082,-0.11482 -0.0463,-0.11482 0.0338,0 0.1047,0.0231 0.15747,0.0513 0.0691,0.037 0.096,0.0353 0.096,-0.006 0,-0.034 0.0496,-0.0477 0.12227,-0.0338 0.12226,0.0234 0.12226,0.0234 0.0171,-0.13064 -0.0578,-0.0847 -0.13944,-0.18192 -0.18136,-0.21603 -0.0681,-0.0554 -0.0675,-0.062 0.005,-0.062 0.0446,0 0.25308,-0.0784 0.46322,-0.17411 0.3753,-0.17103 0.38049,-0.17587 0.29272,-0.27285 -0.0491,-0.0543 -0.0723,-0.0987 -0.0514,-0.0987 0.0209,0 -0.0147,-0.0439 -0.0791,-0.0976 -0.11666,-0.0972 -0.11746,-0.0972 -0.20393,0.005 -0.0478,0.0567 -0.087,0.0838 -0.0871,0.0604 -2e-4,-0.0235 -0.0447,0.0243 -0.0989,0.10612 -0.0542,0.0819 -0.0987,0.12775 -0.0989,0.10199 -2e-4,-0.0258 -0.0563,0.03 -0.12465,0.12402 -0.0684,0.094 -0.17384,0.23186 -0.23437,0.30641 -0.0605,0.0746 -0.20762,0.2085 -0.32686,0.29766 -0.11924,0.0892 -0.23669,0.19911 -0.261,0.24432 -0.0312,0.0581 -0.0142,0.11626 0.0581,0.19844 0.0563,0.0639 0.0881,0.0883 0.0708,0.0542 -0.0173,-0.0341 -0.0121,-0.062 0.0115,-0.062 0.0237,0 0.0864,0.0328 0.13936,0.0728 0.053,0.0401 0.11436,0.0735 0.13643,0.0744 0.0221,8.7e-4 0.0242,-0.0242 0.005,-0.0558 z m -14.43326,-1.18096 c 0.006,-0.0732 0.0472,-0.2068 0.0921,-0.29681 0.0449,-0.09 0.0695,-0.18326 0.0547,-0.20723 -0.0148,-0.024 -0.007,-0.0436 0.0173,-0.0436 0.0243,0 0.0689,-0.0803 0.099,-0.17846 0.0509,-0.16583 0.0489,-0.17312 -0.0289,-0.10308 -0.046,0.0415 -0.13946,0.0885 -0.20767,0.10451 -0.0682,0.016 -0.17984,-2.9e-4 -0.24805,-0.0362 -0.0682,-0.036 -0.12122,-0.10138 -0.11779,-0.14537 0.004,-0.0542 -0.0198,-0.0703 -0.0744,-0.0498 -0.0718,0.0268 -0.0728,0.0196 -0.009,-0.0659 0.0395,-0.0529 0.14717,-0.17689 0.23935,-0.27562 0.16761,-0.17952 0.16761,-0.17952 0.0505,-0.27286 -0.0644,-0.0513 -0.15337,-0.14567 -0.1977,-0.20964 -0.0753,-0.10872 -0.074,-0.1275 0.0203,-0.28738 0.0555,-0.0941 0.087,-0.18498 0.07,-0.20201 -0.017,-0.017 -0.031,-0.005 -0.031,0.0269 0,0.0318 -0.0335,0.0579 -0.0744,0.0579 -0.0409,0 -0.0744,-0.0335 -0.0744,-0.0744 0,-0.0409 -0.0324,-0.0744 -0.0719,-0.0744 -0.0395,0 -0.12883,-0.0747 -0.19843,-0.16592 -0.0696,-0.0913 -0.12655,-0.19585 -0.12655,-0.23244 0,-0.0366 0.0483,-0.11797 0.10738,-0.18084 0.0975,-0.10374 0.10034,-0.12236 0.0312,-0.20163 -0.0419,-0.048 -0.10216,-0.13752 -0.13387,-0.19885 -0.0506,-0.0978 -0.033,-0.14416 0.14245,-0.37658 0.11007,-0.14579 0.20012,-0.28056 0.20012,-0.29951 0,-0.0189 -0.0447,-0.0105 -0.0992,0.0187 -0.0638,0.0342 -0.0992,0.0354 -0.0992,0.003 0,-0.0273 -0.0466,-0.0745 -0.10347,-0.10498 -0.0569,-0.0305 -0.1154,-0.0434 -0.13,-0.0288 -0.0146,0.0146 -0.0553,0.15043 -0.0905,0.30186 -0.0352,0.15143 -0.0456,0.26395 -0.0231,0.25003 0.0225,-0.0139 0.0504,0.003 0.0619,0.037 0.0115,0.0343 -0.0128,0.0872 -0.0541,0.11767 -0.0653,0.0481 -0.0674,0.11791 -0.0164,0.53303 0.0323,0.26271 0.11437,0.62555 0.1824,0.80631 0.0872,0.23178 0.12371,0.42746 0.12371,0.66394 0,0.188 0.0332,0.41471 0.0755,0.51604 0.0415,0.0994 0.13971,0.28631 0.21817,0.41534 0.0785,0.12903 0.18345,0.3512 0.23331,0.49372 0.0708,0.20242 0.10045,0.24162 0.1354,0.17916 0.0246,-0.044 0.0495,-0.13987 0.0552,-0.21312 z m 6.2401,-0.47634 c 0.1296,-0.0181 0.23556,-0.0472 0.23545,-0.0645 -1e-4,-0.0174 -0.0402,-0.0985 -0.0892,-0.1804 -0.049,-0.0819 -0.13061,-0.26045 -0.18146,-0.39687 -0.0508,-0.13643 -0.11941,-0.2927 -0.15238,-0.34727 -0.033,-0.0546 -0.0884,-0.2394 -0.1231,-0.41073 -0.0347,-0.17133 -0.077,-0.32007 -0.0939,-0.33053 -0.0169,-0.0105 -0.13652,0.0593 -0.26576,0.15503 -0.12925,0.0957 -0.23499,0.19424 -0.23499,0.21891 0,0.0247 0.0236,0.0449 0.0525,0.0449 0.0289,0 0.0387,0.0223 0.0219,0.0496 -0.0169,0.0273 -0.011,0.0496 0.0129,0.0496 0.024,0 -0.0528,0.10356 -0.1707,0.23013 -0.11787,0.12657 -0.21431,0.2711 -0.21431,0.32118 0,0.0501 0.0614,0.12206 0.13643,0.15994 0.075,0.0379 0.16281,0.0594 0.19507,0.0479 0.0323,-0.0116 0.086,0.0306 0.1195,0.0936 0.0335,0.0631 0.10285,0.14444 0.15419,0.18087 0.0636,0.0451 0.0831,0.0986 0.0611,0.16777 -0.0292,0.0919 -0.0164,0.0988 0.13442,0.0727 0.0917,-0.0159 0.27269,-0.0437 0.40229,-0.0618 z m -4.38476,-0.56934 c 0.1947,-0.14205 0.35399,-0.27786 0.35399,-0.30179 0,-0.0239 0.0168,-0.0379 0.0373,-0.0311 0.0205,0.007 0.26747,-0.174 0.5488,-0.40182 0.28134,-0.22783 0.76011,-0.63524 1.06394,-0.90538 0.30384,-0.27013 0.57165,-0.49114 0.59515,-0.49114 0.0235,0 0.0264,0.0279 0.007,0.062 -0.0199,0.0341 0.0117,0.02 0.0703,-0.0314 0.0586,-0.0514 0.0948,-0.11251 0.0804,-0.13582 -0.0144,-0.0233 0.081,-0.15912 0.21201,-0.30182 0.13101,-0.14269 0.28284,-0.29849 0.33742,-0.34622 0.0546,-0.0477 0.13828,-0.0875 0.18603,-0.0884 0.0499,-9.5e-4 0.0868,-0.0396 0.0868,-0.091 0,-0.0491 0.0232,-0.11245 0.0515,-0.14075 0.0355,-0.0355 0.0346,-0.0957 -0.003,-0.19457 -0.0299,-0.0787 -0.0602,-0.21593 -0.0671,-0.3049 -0.007,-0.089 -0.0277,-0.17672 -0.0459,-0.19497 -0.0183,-0.0183 -0.10186,0.0428 -0.18581,0.13559 -0.0839,0.0928 -0.24053,0.28243 -0.34798,0.42133 -0.10745,0.13891 -0.19537,0.27658 -0.19537,0.30593 0,0.0294 0.0253,0.0618 0.0562,0.0721 0.0328,0.0109 0.0421,0.0591 0.0222,0.11575 -0.0187,0.0534 -0.32301,0.30911 -0.67621,0.56832 -0.3532,0.25921 -0.6848,0.50477 -0.73688,0.5457 -0.0521,0.0409 -0.14415,0.1079 -0.20461,0.14883 -0.0605,0.0409 -0.13513,0.0967 -0.16593,0.12402 -0.0308,0.0273 -0.15921,0.13253 -0.28535,0.23387 -0.12615,0.10134 -0.34936,0.30416 -0.49603,0.4507 -0.14667,0.14654 -0.33922,0.34633 -0.4279,0.44398 -0.0887,0.0977 -0.16123,0.19376 -0.16123,0.21357 0,0.0198 -0.0308,0.0608 -0.0685,0.0911 -0.0377,0.0303 -0.0834,0.11929 -0.10174,0.19777 -0.0259,0.11128 -0.0178,0.13677 0.0369,0.11576 0.0386,-0.0148 0.2295,-0.14316 0.4242,-0.28522 z m 15.62287,-2.46099 c 0.10144,-0.0449 0.20677,-0.0875 0.23405,-0.0947 0.0273,-0.007 0.17005,-0.0798 0.31726,-0.16144 0.26079,-0.14467 0.26481,-0.15018 0.1571,-0.21539 -0.0608,-0.0368 -0.15269,-0.1485 -0.20421,-0.2482 -0.0779,-0.15075 -0.0818,-0.18581 -0.0234,-0.20825 0.0502,-0.0193 0.0622,-0.0766 0.0421,-0.20066 -0.0197,-0.12128 -0.005,-0.19709 0.0494,-0.25123 0.0427,-0.0426 0.0927,-0.17862 0.11122,-0.30214 0.0267,-0.178211 0.0155,-0.244691 -0.0543,-0.321871 -0.0484,-0.0535 -0.12694,-0.0973 -0.1745,-0.0973 -0.0665,0 -0.128,0.12914 -0.26596,0.558101 -0.0987,0.30696 -0.20322,0.63153 -0.23221,0.72127 -0.029,0.0897 -0.0594,0.23485 -0.0676,0.32246 -0.008,0.0876 -0.0511,0.24574 -0.0953,0.35139 -0.0442,0.10565 -0.0804,0.20053 -0.0804,0.21084 0,0.0103 0.023,0.0188 0.0512,0.0188 0.0282,0 0.1342,-0.0368 0.23564,-0.0817 z m -14.55044,-0.43646 c 0.16215,-0.12128 0.35124,-0.23467 0.42021,-0.25198 0.069,-0.0173 0.13908,-0.0536 0.15579,-0.0806 0.0167,-0.0271 -0.0277,-0.10982 -0.0987,-0.18395 -0.071,-0.0741 -0.17919,-0.19534 -0.24041,-0.26935 -0.0839,-0.1015 -0.0933,-0.13458 -0.038,-0.13458 0.0403,0 0.13489,-0.1172 0.21023,-0.26045 0.0753,-0.143251 0.14455,-0.277191 0.1538,-0.297661 0.009,-0.0205 -0.0198,-0.0372 -0.0647,-0.0372 -0.0448,0 -0.0678,0.0221 -0.0512,0.049 0.0168,0.0272 -10e-4,0.0369 -0.0406,0.0218 -0.0465,-0.0179 -0.082,0.0171 -0.10325,0.10182 -0.0178,0.0709 -0.054,0.115621 -0.0805,0.0992 -0.0265,-0.0164 -0.0482,0.006 -0.0482,0.0491 0,0.0434 -0.0326,0.0914 -0.0725,0.10673 -0.0399,0.0153 -0.0878,0.076 -0.10641,0.13486 -0.0186,0.0589 -0.13669,0.20717 -0.26234,0.32954 -0.12565,0.12238 -0.27363,0.28639 -0.32885,0.36446 -0.1004,0.14196 -0.1004,0.14196 0.0496,0.31053 0.0825,0.0927 0.17277,0.1687 0.20059,0.16885 0.0278,1.4e-4 0.18325,-0.099 0.3454,-0.22024 z m 9.33517,-0.8461 c 0.0296,-0.34726 0.0296,-0.34726 -0.3857,-0.3404 -0.37359,0.006 -0.43325,-0.006 -0.59391,-0.121511 -0.0982,-0.0706 -0.23056,-0.20765 -0.29406,-0.30452 -0.0635,-0.0969 -0.1168,-0.18731 -0.11842,-0.20095 -0.002,-0.0136 -0.0945,-0.12168 -0.20634,-0.24009 -0.14489,-0.153369 -0.24061,-0.324594 -0.33279,-0.595316 -0.0712,-0.209013 -0.15329,-0.472607 -0.18249,-0.585764 -0.0292,-0.113156 -0.0861,-0.218408 -0.12645,-0.233893 -0.0487,-0.0187 -0.0835,0.01217 -0.10351,0.09191 -0.0185,0.07382 0.0295,0.297675 0.12476,0.58116 0.0852,0.253599 0.27196,0.684133 0.41504,0.956743 0.22098,0.421 0.29176,0.51308 0.47005,0.611431 0.11545,0.0637 0.2099,0.0918 0.2099,0.0625 0,-0.0293 0.0293,-0.0533 0.065,-0.0533 0.0358,0 0.15475,0.097 0.26441,0.21545 0.10965,0.11849 0.28589,0.3998 0.39163,0.62513 0.19226,0.40969 0.19226,0.40969 0.28275,0.14423 0.0498,-0.14601 0.10381,-0.42174 0.1201,-0.61274 z m -12.91975,-0.0246 c 0.0893,-0.0545 0.20045,-0.0991 0.24692,-0.0992 0.0464,-1e-4 0.14134,-0.0261 0.21083,-0.0577 0.0695,-0.0317 0.12636,-0.0912 0.12636,-0.1323 0,-0.0411 0.0156,-0.0591 0.0346,-0.0401 0.0191,0.0191 0.0614,-0.0154 0.0941,-0.0765 0.0523,-0.0978 0.0386,-0.136611 -0.11502,-0.324021 -0.10559,-0.12886 -0.14763,-0.21302 -0.10648,-0.21317 0.0374,-1.5e-4 0.13496,-0.0551 0.21681,-0.12224 0.14883,-0.12199 0.14883,-0.12199 -0.11488,-0.12377 -0.14504,-9.9e-4 -0.30834,-0.0257 -0.36289,-0.0549 -0.0546,-0.02919 -0.14228,-0.06137 -0.19496,-0.07152 -0.071,-0.01368 -0.1027,0.01606 -0.12258,0.11509 -0.0147,0.0734 -0.0572,0.24516 -0.0943,0.38158 -0.0371,0.13643 -0.0701,0.35782 -0.0733,0.491981 -0.003,0.13416 0.007,0.28485 0.023,0.33486 0.0159,0.05 0.038,0.0909 0.0491,0.0909 0.0111,0 0.0934,-0.0446 0.18269,-0.099 z m 18.7801,-1.820716 c 0.0741,-0.04631 0.14269,-0.08967 0.15249,-0.09636 0.01,-0.0067 -0.0293,-0.07828 -0.0868,-0.159099 -0.0576,-0.08082 -0.10463,-0.189353 -0.10463,-0.241191 0,-0.05184 -0.0639,-0.195005 -0.14199,-0.31815 -0.0869,-0.137091 -0.3418,-0.378612 -0.65733,-0.622934 -0.28343,-0.219468 -0.55785,-0.446785 -0.60983,-0.505148 -0.066,-0.07416 -0.15284,-0.106115 -0.28818,-0.106115 -0.11746,0 -0.18152,0.01967 -0.16279,0.04999 0.0179,0.02891 -0.0227,0.02555 -0.0963,-0.008 -0.07,-0.03187 -0.12718,-0.07599 -0.12718,-0.09804 0,-0.02205 -0.0335,-0.02724 -0.0744,-0.01153 -0.0421,0.01617 -0.0744,0.0012 -0.0744,-0.03463 0,-0.03475 -0.0138,-0.04936 -0.0307,-0.03247 -0.0169,0.01689 -0.0644,-0.003 -0.10562,-0.04419 -0.0412,-0.0412 -0.10551,-0.06316 -0.14292,-0.04881 -0.0374,0.01436 -0.068,0.0021 -0.068,-0.02726 0,-0.02935 -0.0346,-0.04007 -0.077,-0.02382 -0.0442,0.01694 -0.0641,0.0086 -0.0467,-0.0195 0.0167,-0.02697 0.001,-0.0487 -0.0346,-0.04828 -0.0357,3.97e-4 -0.0978,0.02153 -0.13792,0.04691 -0.0401,0.02538 -0.0579,0.06125 -0.0394,0.0797 0.0185,0.01845 0.23374,0.103382 0.47841,0.188733 0.33886,0.118204 0.5134,0.214288 0.73249,0.403229 0.1582,0.136426 0.43336,0.381992 0.61146,0.545703 0.17811,0.163711 0.41875,0.404442 0.53477,0.534957 0.1277,0.143652 0.21094,0.285857 0.21094,0.360341 0,0.06767 0.0277,0.167386 0.0615,0.221586 0.0339,0.0542 0.0904,0.09855 0.12577,0.09855 0.0353,0 0.12483,-0.03789 0.19891,-0.0842 z m -8.4426,-6.315425 c 0.003,-0.122784 0.008,-0.253881 0.0124,-0.291329 0.005,-0.0473 0.0262,-0.05314 0.0693,-0.01912 0.0341,0.02693 0.1234,0.04006 0.19843,0.02918 0.097,-0.01406 0.13643,0.0017 0.13643,0.05459 0,0.0409 0.0447,0.09826 0.0992,0.127466 0.0546,0.02921 0.0992,0.03388 0.0992,0.01039 0,-0.02349 -0.0558,-0.09514 -0.12402,-0.159221 -0.0682,-0.06408 -0.12403,-0.159361 -0.12403,-0.21173 0,-0.05331 -0.0434,-0.106569 -0.0987,-0.121016 -0.0543,-0.01419 -0.0864,-0.04559 -0.0715,-0.06977 0.0149,-0.02418 -0.0204,-0.04397 -0.0785,-0.04397 -0.0581,0 -0.28824,0.03297 -0.51142,0.07328 -0.22318,0.0403 -0.51182,0.08632 -0.64143,0.102258 -0.1296,0.01594 -0.23564,0.04715 -0.23564,0.06935 0,0.0222 0.0614,0.05322 0.13642,0.06893 0.0883,0.01848 0.22043,0.133433 0.3744,0.325647 0.23798,0.297087 0.23798,0.297087 0.4961,0.287699 0.25812,-0.0094 0.25812,-0.0094 0.26326,-0.232629 z m 1.95427,0.05475 c 1e-4,-0.01081 -0.10177,-0.133596 -0.22635,-0.272852 -0.12458,-0.139255 -0.26243,-0.292259 -0.30634,-0.340008 -0.0524,-0.05702 -0.0592,-0.08682 -0.0198,-0.08682 0.033,0 0.12064,0.03868 0.19472,0.08596 0.12775,0.08154 0.13118,0.08154 0.0666,0 -0.0601,-0.07593 -0.0558,-0.08596 0.0372,-0.08596 0.0579,0 0.14737,0.04209 0.19881,0.09352 0.0514,0.05144 0.22147,0.141394 0.37785,0.199903 0.28432,0.106379 0.28432,0.106379 0.53322,-0.05334 0.20898,-0.134097 0.23392,-0.165175 0.15546,-0.193721 -0.0823,-0.02993 -0.0786,-0.03691 0.0306,-0.05823 0.0682,-0.01333 -0.41822,-0.02727 -1.08096,-0.03099 -1.09535,-0.0061 -1.19916,4.17e-4 -1.14102,0.07207 0.0352,0.04335 0.13094,0.15328 0.2128,0.244279 0.0819,0.091 0.18928,0.223419 0.23873,0.294266 0.0494,0.07085 0.10526,0.119983 0.12402,0.109194 0.0188,-0.01079 0.0753,-0.0047 0.12552,0.01364 0.0503,0.01829 0.17857,0.03224 0.2851,0.031 0.10653,-0.0012 0.19377,-0.0111 0.19385,-0.02192 z"
         id="path212" /><path
         style="fill:#ffffff;stroke-width:0.17588"
         d="m 465.55417,430.26624 c -0.24184,-0.0488 -0.52749,-0.20183 -0.63478,-0.33994 -0.19015,-0.24477 -2.03298,-0.69893 -5.96072,-1.469 -3.73356,-0.73199 -4.11386,-0.85178 -6.18092,-1.94684 -1.12951,-0.59837 -2.1654,-1.19969 -2.30196,-1.33625 -0.13657,-0.13657 -0.42825,-0.2483 -0.64818,-0.2483 -0.21993,0 -0.54362,-0.15884 -0.7193,-0.35297 -0.17568,-0.19412 -0.4056,-0.33501 -0.51093,-0.31309 -0.28955,0.0603 -5.93747,-3.27947 -6.05417,-3.57998 -0.0322,-0.083 -0.16556,-0.15096 -0.29626,-0.15096 -0.51715,0 -3.47769,-2.19659 -5.34725,-3.96743 -1.63011,-1.54403 -2.04183,-1.85012 -2.35756,-1.7527 -0.2104,0.0649 -0.75019,0.16102 -1.19954,0.21355 -0.77183,0.0902 -0.86179,0.0542 -1.62689,-0.65101 -0.44544,-0.41059 -0.80989,-0.84561 -0.80989,-0.9667 0,-0.12109 0.20248,-0.66244 0.44996,-1.203 l 0.44996,-0.98284 -0.45478,-1.26076 c -0.25012,-0.69341 -0.80859,-2.77358 -1.24103,-4.6226 -0.61198,-2.61669 -0.96176,-3.72145 -1.5781,-4.98425 -0.43551,-0.89233 -0.79185,-1.72652 -0.79185,-1.85376 0,-0.67106 -0.61593,-2.42721 -1.17282,-3.34395 -0.54546,-0.89792 -0.66701,-1.3047 -0.87128,-2.91573 -0.13056,-1.02973 -0.42923,-2.46583 -0.66371,-3.19133 -0.69314,-2.14471 -0.70406,-3.18493 -0.11723,-11.17215 0.29505,-4.01594 1.33493,-7.01064 3.97951,-11.46044 0.85189,-1.4334 2.21236,-3.78581 3.02327,-5.22758 1.92089,-3.41529 2.4209,-4.17448 3.68561,-5.59608 2.58401,-2.90457 4.93759,-4.63824 8.22981,-6.06219 1.80785,-0.78194 3.29553,-1.20294 10.37677,-2.93652 4.5465,-1.11304 8.97867,-2.14722 9.84928,-2.29817 2.9579,-0.51288 14.50582,-0.28432 17.32417,0.34287 5.45824,1.21468 10.10285,2.93856 11.91244,4.42139 0.67904,0.55642 2.47635,2.57306 7.56254,8.4854 1.96958,2.2895 5.32643,6.87806 6.12899,8.37785 0.36158,0.67571 0.76322,1.42643 0.89252,1.66827 0.1293,0.24183 0.23558,0.57966 0.23618,0.75073 8.8e-4,0.26409 0.41822,1.2214 1.07088,2.45669 0.0888,0.16797 0.16136,0.54392 0.16136,0.83543 0,0.29151 0.0838,0.53003 0.18626,0.53003 0.10244,0 0.14862,0.0609 0.10262,0.13533 -0.046,0.0744 0.0735,0.56909 0.26566,1.09925 0.52962,1.4615 1.36961,6.11363 1.38082,7.64735 0.004,0.58041 0.0815,1.37187 0.17173,1.7588 0.0902,0.38694 0.21742,3.20356 0.28268,6.25917 0.0952,4.45644 0.0716,5.69179 -0.11946,6.24374 -0.13097,0.37845 -0.25155,0.80681 -0.26796,0.95191 -0.0164,0.1451 -0.22939,0.89698 -0.4733,1.67086 -0.24392,0.77387 -0.49523,1.66001 -0.55847,1.9692 -0.0632,0.30919 -0.51452,1.21937 -1.00285,2.02262 -0.48833,0.80325 -1.63883,2.96423 -2.55667,4.80217 -1.98021,3.96529 -3.04845,5.62304 -4.96018,7.69745 -0.78142,0.8479 -1.42076,1.64535 -1.42076,1.77211 0,0.12675 0.19977,0.41813 0.44392,0.6475 0.37851,0.35559 0.40388,0.43944 0.17218,0.56911 -0.3688,0.20639 -0.1733,0.47146 0.26348,0.35724 0.66646,-0.17428 0.29937,0.43161 -0.74077,1.22263 -0.22144,0.16841 -0.64006,0.50711 -0.93027,0.75268 -1.53502,1.29891 -6.74374,3.82382 -9.59973,4.65345 -0.92683,0.26923 -1.99823,0.68715 -2.38089,0.92871 -2.56538,1.61945 -6.40467,2.83382 -12.36161,3.90996 -1.39321,0.25169 -3.09485,0.57717 -3.78141,0.72329 -1.26945,0.27017 -5.10882,0.47144 -5.90912,0.30978 z M 477.514,410.00743 c 0.95626,-0.68805 1.50071,-2.64118 1.05964,-3.80129 -0.2351,-0.61834 -0.56995,-0.56998 -2.19537,0.31708 -1.80948,0.9875 -1.91952,1.1647 -1.1904,1.91696 0.42185,0.43524 0.56733,0.7448 0.56733,1.2072 0,0.34203 0.0588,0.68067 0.13069,0.75255 0.19382,0.19382 1.12536,-0.0308 1.62811,-0.3925 z M 474.00007,404.75 c 3.31295,-1.99995 4.49895,-2.82284 5.95508,-4.13185 1.00004,-0.89899 2.26833,-1.99968 2.81843,-2.44596 0.55011,-0.44628 1.12671,-1.00452 1.28134,-1.24052 0.15464,-0.236 1.28917,-1.53293 2.52119,-2.88205 3.04964,-3.33952 3.55135,-4.05621 5.27198,-7.53102 1.26256,-2.54975 1.61702,-3.47164 2.30789,-6.00238 0.44893,-1.64447 0.93073,-3.38569 1.07066,-3.86936 0.33446,-1.15608 0.38191,-4.33947 0.0799,-5.36433 -0.17495,-0.5938 -0.55144,-1.10559 -1.50751,-2.04928 -1.3951,-1.37704 -3.1588,-2.60389 -3.53551,-2.45933 -0.13165,0.0505 -0.26427,0.0171 -0.29471,-0.0742 -0.0304,-0.0913 -0.5169,-0.26288 -1.08102,-0.3812 -0.96095,-0.20156 -1.11406,-0.18465 -2.42712,0.26819 -1.72868,0.59618 -6.82858,3.42468 -8.27085,4.58717 -1.54693,1.24685 -2.95257,3.53047 -2.47009,4.01294 0.10194,0.10194 0.78285,0.17347 1.51624,0.15927 l 1.33121,-0.0258 0.86637,0.92268 c 0.4765,0.50747 0.8152,1.00381 0.75267,1.10298 -0.0625,0.0992 -0.12842,0.41774 -0.14641,0.70794 -0.018,0.29021 -0.12277,1.00108 -0.23283,1.57973 -0.11007,0.57864 -0.15507,1.2316 -0.1,1.45101 0.0551,0.21941 0.0195,0.39892 -0.0791,0.39892 -0.0986,0 -0.18089,0.2968 -0.18292,0.65955 -0.002,0.36276 -0.1958,1.31417 -0.43061,2.11426 -0.23481,0.80009 -0.51988,2.10599 -0.63348,2.90202 -0.1136,0.79602 -0.30504,1.56603 -0.42542,1.71113 -0.12038,0.1451 -0.2162,0.3965 -0.21292,0.55866 0.008,0.38175 -1.03917,2.10955 -1.74726,2.88374 l -0.55136,0.60284 h -2.06608 c -2.35856,0 -2.75813,-0.15201 -3.82086,-1.45354 -0.74698,-0.91483 -1.45689,-3.21284 -2.2405,-7.25252 -0.30023,-1.54774 -0.70207,-3.48682 -0.89297,-4.30906 -0.1909,-0.82224 -0.57056,-2.84046 -0.84368,-4.48493 -0.40399,-2.43241 -0.618,-3.25165 -1.14769,-4.39328 -1.00936,-2.1755 -1.04985,-2.2028 -3.26168,-2.19917 -2.12477,0.003 -3.83482,0.31586 -5.23272,0.95583 -2.17822,0.99722 -5.99265,4.10687 -7.07788,5.77012 -0.39391,0.60371 -0.79571,1.19325 -0.89289,1.31008 -0.0972,0.11684 -0.17669,0.28645 -0.17669,0.37691 0,0.0905 -0.10308,0.20405 -0.22907,0.25239 -0.12599,0.0484 -0.43984,0.49415 -0.69745,0.99068 -0.36936,0.71193 -0.4334,0.99478 -0.30292,1.33796 0.091,0.23935 0.22677,0.43464 0.30171,0.43398 0.075,-7e-4 0.49242,-0.43866 0.92773,-0.97333 1.07048,-1.31485 2.4466,-2.36737 3.09414,-2.36654 0.62891,8.8e-4 1.5559,0.5452 1.85469,1.08918 0.12238,0.22283 0.31733,1.03831 0.4332,1.81218 0.11588,0.77388 0.33412,2.01036 0.48499,2.74774 0.15086,0.73739 0.40016,2.39945 0.554,3.69348 0.15384,1.29403 0.3864,2.74851 0.5168,3.23218 0.1304,0.48367 0.28844,1.17645 0.35119,1.53951 0.1939,1.12183 1.14005,3.12916 2.34169,4.96805 0.63211,0.96734 1.77958,2.78769 2.54992,4.04524 1.83289,2.99207 3.45222,5.29475 4.29177,6.10286 1.07108,1.03097 1.63725,1.20469 3.7538,1.15174 l 1.84674,-0.0462 z m 11.60441,-2.48214 c 0,-0.08 0.23653,-0.11071 0.52561,-0.0683 0.64945,0.0953 0.85722,-0.30237 0.51446,-0.98471 -0.38377,-0.76398 -0.39132,-0.79088 -0.18648,-0.66429 0.26169,0.16173 1.43285,-0.0665 1.43285,-0.27917 0,-0.0924 -0.20726,-0.43978 -0.46058,-0.77189 -0.25331,-0.33211 -0.36684,-0.60384 -0.25229,-0.60384 0.41507,0 2.82343,-1.21378 2.82343,-1.42297 0,-0.32886 -0.86653,-1.39111 -1.1348,-1.39111 -0.24446,0 -2.73456,2.56285 -2.73456,2.81446 0,0.0773 -0.50985,0.55429 -1.13301,1.05988 -0.62315,0.5056 -1.17897,1.03904 -1.23515,1.18544 -0.0562,0.1464 0.0321,0.47106 0.19618,0.72147 0.17845,0.27235 0.32726,0.3685 0.37033,0.23928 0.0543,-0.16276 0.16478,-0.15104 0.44832,0.0476 0.41153,0.28825 0.82569,0.34752 0.82569,0.11817 z m -54.5204,-4.70082 c 0.16331,-0.57516 0.46702,-1.46419 0.67491,-1.97562 0.48825,-1.20112 0.47882,-1.37514 -0.0555,-1.02503 -0.51473,0.33726 -1.56391,0.3746 -1.80409,0.0642 -0.4278,-0.55289 -0.38471,-0.852 0.21899,-1.52023 0.33637,-0.37231 0.61157,-0.77647 0.61157,-0.89812 0,-0.12165 -0.27823,-0.52915 -0.61828,-0.90556 -0.5999,-0.66402 -0.61036,-0.69969 -0.35176,-1.19977 0.29547,-0.57138 0.38414,-1.34277 0.10335,-0.89917 -0.12591,0.19893 -0.30579,0.11011 -0.89057,-0.4397 -1.06995,-1.00598 -1.16471,-1.2481 -0.72253,-1.84617 0.4493,-0.60772 0.45011,-0.6641 0.0175,-1.21719 -0.48635,-0.62177 -0.43763,-0.97911 0.26382,-1.93468 0.68951,-0.93929 0.78188,-1.30764 0.28865,-1.1511 -0.18873,0.0599 -0.42087,-0.009 -0.54917,-0.16403 -0.12224,-0.14728 -0.3678,-0.26779 -0.54569,-0.26779 -0.39905,0 -0.76762,1.20473 -0.62931,2.05702 0.052,0.32028 0.0102,0.62605 -0.0943,0.69063 -0.29768,0.18398 -0.0163,2.66919 0.49959,4.41177 0.2518,0.85065 0.52033,2.25251 0.59671,3.11523 0.12615,1.42482 0.24105,1.78291 1.25352,3.90673 0.61306,1.28597 1.18688,2.31703 1.27516,2.29123 0.0883,-0.0258 0.29414,-0.51749 0.45744,-1.09265 z m 23.1375,-1.50238 c 0.57399,-0.10605 1.10238,-0.22908 1.17421,-0.27339 0.0718,-0.0443 -0.0347,-0.40455 -0.23668,-0.80052 -0.70833,-1.38844 -1.54991,-3.52831 -1.76417,-4.48574 -0.11897,-0.5316 -0.31628,-1.00491 -0.43848,-1.0518 -0.22708,-0.0871 -1.70319,0.83763 -1.93455,1.21197 -0.0704,0.11396 -0.0349,0.23825 0.079,0.27621 0.35636,0.11878 0.23072,0.45717 -0.4965,1.33719 -0.97933,1.18514 -0.91804,1.67536 0.246,1.96752 0.63339,0.15897 1.50078,1.08849 1.50765,1.61565 0.006,0.46386 0.28611,0.49436 1.86356,0.20291 z m -16.36461,-2.16228 c 0.57826,-0.44149 1.28883,-0.9818 1.57903,-1.20069 1.55111,-1.16996 3.24952,-2.55521 5.50368,-4.4889 1.40819,-1.20799 2.6691,-2.15635 2.86702,-2.15635 0.2317,0 0.43662,-0.19675 0.59535,-0.57161 0.33687,-0.79556 1.9028,-2.50034 2.53859,-2.76369 0.67992,-0.28163 1.01247,-1.17488 0.73439,-1.9726 -0.10519,-0.30174 -0.19126,-0.77674 -0.19126,-1.05554 0,-1.24486 -0.9173,-0.62428 -2.57419,1.74152 -0.54054,0.77182 -0.6071,0.96172 -0.41723,1.19049 0.32806,0.3953 0.0549,0.64904 -3.7901,3.52076 -1.84353,1.37687 -3.9409,3.0259 -4.66082,3.6645 -2.38362,2.11438 -4.26573,4.5247 -3.94207,5.04838 0.13381,0.21651 0.43892,0.0505 1.75761,-0.95627 z m 60.32212,-9.84583 c 0.89255,-0.42281 1.68001,-0.86129 1.74992,-0.9744 0.0735,-0.11887 -0.0546,-0.34862 -0.30352,-0.54441 -0.56281,-0.4427 -0.95144,-1.35486 -0.68905,-1.61725 0.10546,-0.10546 0.1525,-0.39785 0.10454,-0.64977 -0.0516,-0.27117 0.0599,-0.74224 0.27335,-1.15475 0.52451,-1.01359 0.47947,-1.91033 -0.11963,-2.38158 l -0.48017,-0.3777 -0.30568,0.3775 c -0.32732,0.40422 -1.89981,5.03138 -1.89981,5.59031 0,0.18434 -0.1583,0.79524 -0.35176,1.35756 -0.19347,0.56233 -0.35176,1.04959 -0.35176,1.08282 0,0.24071 1.00029,-0.0578 2.37357,-0.70833 z M 441.723,383.13969 c 0.48336,-0.34668 1.25478,-0.82289 1.71427,-1.05825 0.45948,-0.23536 0.83543,-0.49927 0.83543,-0.58648 0,-0.0872 -0.34923,-0.56768 -0.77606,-1.06772 -0.75928,-0.88953 -0.76891,-0.91631 -0.4457,-1.23952 0.18169,-0.18169 0.53225,-0.72877 0.77901,-1.21575 0.37287,-0.73581 0.40165,-0.88541 0.17033,-0.88541 -0.43678,0 -0.95874,0.33851 -0.95874,0.62177 0,0.1417 -0.0714,0.25763 -0.15878,0.25763 -0.0873,0 -0.43482,0.41552 -0.7722,0.92337 -0.33737,0.50786 -0.79185,1.08167 -1.00995,1.27513 -0.52412,0.46494 -1.75255,2.01273 -1.75255,2.20818 0,0.24256 1.06931,1.39736 1.29391,1.39736 0.11121,0 0.59767,-0.28364 1.08103,-0.63031 z m 35.31107,-1.75661 c 0.17134,-0.67024 0.29006,-1.61435 0.26382,-2.09802 l -0.0477,-0.8794 -1.53138,-0.0919 c -1.73505,-0.10414 -2.1386,-0.31269 -3.08702,-1.59529 -0.31524,-0.42631 -0.83778,-1.0917 -1.16119,-1.47863 -0.74004,-0.88538 -1.1898,-1.77766 -1.68442,-3.34172 -0.63914,-2.02104 -0.72891,-2.1985 -1.11211,-2.1985 -0.32471,0 -0.34659,0.0817 -0.25628,0.95676 0.11747,1.13817 1.25893,4.07428 2.28065,5.86638 0.80599,1.41371 1.61692,2.07776 2.32141,1.90095 0.56331,-0.14139 1.56705,0.99696 2.55715,2.90005 0.40371,0.77599 0.82662,1.38098 0.93979,1.34442 0.11317,-0.0366 0.34595,-0.61485 0.51729,-1.28509 z m -47.79911,-2.01803 c 1.14463,-0.40791 2.00998,-1.11396 2.01774,-1.6463 0.003,-0.18434 -0.20098,-0.60506 -0.45258,-0.93493 -0.2516,-0.32987 -0.42968,-0.62019 -0.39573,-0.64516 0.034,-0.025 0.31896,-0.22303 0.63334,-0.44013 0.76942,-0.53131 0.71953,-0.72252 -0.18852,-0.72252 -0.41807,0 -1.13664,-0.12829 -1.59682,-0.2851 -0.55947,-0.19062 -0.89515,-0.22664 -1.0131,-0.10868 -0.25615,0.25615 -0.84127,2.98006 -0.84655,3.94096 -0.006,1.04817 0.14144,1.43178 0.50341,1.31186 0.15594,-0.0517 0.75841,-0.26316 1.33881,-0.47 z m 70.28087,-6.62546 c 0.57284,-0.33839 0.62,-0.51937 0.26678,-1.02367 -0.13422,-0.19162 -0.34601,-0.68879 -0.47066,-1.10482 -0.29192,-0.97435 -1.19995,-1.9939 -3.36793,-3.78159 -2.17731,-1.79538 -2.69905,-2.09578 -3.418,-1.96795 -0.48896,0.0869 -1.39974,-0.15981 -1.64514,-0.4457 -0.0484,-0.0563 -0.53622,-0.28203 -1.08412,-0.50153 -0.79981,-0.32042 -1.06947,-0.35987 -1.368,-0.2001 -0.2045,0.10944 -0.33053,0.26579 -0.28007,0.34744 0.0505,0.0817 0.84545,0.44048 1.76663,0.79741 1.784,0.69124 2.46129,1.16087 4.84832,3.3618 2.31955,2.13871 3.15244,3.16161 3.15244,3.87167 0,0.38248 0.49871,0.94878 0.83555,0.94878 0.13936,0 0.48325,-0.13579 0.7642,-0.30174 z m -32.08079,-23.15374 c 0.0576,-0.0576 0.14227,-0.49566 0.18818,-0.9735 l 0.0835,-0.86881 0.63856,0.10199 c 0.35121,0.0561 0.74199,0.24744 0.86839,0.42523 0.23538,0.33107 0.73752,0.44608 0.73752,0.16891 0,-0.0849 -0.12394,-0.2572 -0.27542,-0.38292 -0.15148,-0.12571 -0.39898,-0.47178 -0.54999,-0.76902 -0.37568,-0.73946 -0.84478,-1.15603 -1.30177,-1.15603 -0.7134,0 -4.99486,0.74053 -5.15651,0.89188 -0.0929,0.087 0.0553,0.23063 0.35176,0.34089 0.28177,0.10481 1.00035,0.71238 1.59683,1.35017 l 1.08453,1.1596 0.81487,-0.0918 c 0.44818,-0.0505 0.86199,-0.13896 0.91957,-0.19654 z m 7.44076,-0.62984 c 0,-0.0911 -0.39614,-0.61833 -0.8803,-1.17162 -0.91596,-1.04672 -1.00725,-1.30047 -0.33925,-0.94296 0.33879,0.18131 0.37833,0.17107 0.2844,-0.0737 -0.15535,-0.40485 0.15037,-0.35219 0.89572,0.15429 0.35498,0.24122 1.02882,0.56592 1.49741,0.72157 0.85091,0.28262 0.85303,0.28234 1.67565,-0.22533 0.51029,-0.31491 0.84506,-0.65636 0.87988,-0.89744 l 0.0562,-0.38913 h -4.22297 c -2.32264,0 -4.26637,0.0702 -4.3194,0.15602 -0.14105,0.22821 1.86056,2.60855 2.27417,2.70446 0.66591,0.15442 2.19849,0.12921 2.19849,-0.0362 z"
         id="path356"
         transform="scale(0.26458333)"
         inkscape:export-filename="path356.svg"
         inkscape:export-xdpi="96"
         inkscape:export-ydpi="96" /></g></g></svg>
